<svg xmlns="http://www.w3.org/2000/svg" viewBox="0 0 2560 1440" preserveAspectRatio="xMidYMid meet">
  <g data-id="5" transform="translate(1074.83 547.78) scale(0.819805 0.819805)" fill="none" stroke="black" stroke-width="2.5" stroke-linecap="round" stroke-linejoin="round" vector-effect="non-scaling-stroke">
    <path d="M286,1L285,14L290,44"/>
    <path d="M110,309L107,309L104,306L103,299L105,297L112,296L118,288L121,277L132,255L137,250L145,246L148,246L152,250"/>
    <path d="M111,315L109,318L109,326L113,331L118,350L127,365"/>
    <path d="M531,317L518,316L511,310L510,292L504,287L504,282L509,272L508,265"/>
    <path d="M534,365L537,357L547,350L554,341L563,336L572,326L580,307L582,293L587,287L587,280L585,278L581,278L568,286L562,286L559,282L559,277L554,271L557,261L557,254L549,247L529,242L521,231"/>
    <path d="M305,386L304,407"/>
    <path d="M130,410L130,404L124,398L124,390L128,377L128,366"/>
    <path d="M659,512L672,436L676,402L672,374L666,359L661,356"/>
    <path d="M401,866L400,877"/>
    <path d="M290,44L308,43L318,47L330,57L337,66L344,85L356,108L360,122L360,136L378,144L386,151L395,203L396,235L401,246L397,252L395,268L390,275L385,297L380,301L370,302"/>
    <path d="M290,44L275,58L265,75L246,122L245,141L229,150L219,160L216,164L212,181L211,210L209,216L209,250L202,260L202,266L209,282L212,285L219,305L223,310L232,315L230,339L227,348L227,368L231,392L233,393L239,386L243,388L240,404"/>
    <path d="M520,230L522,221L530,212L541,204L555,197L571,197L594,212L601,219L606,231L605,258L596,286L620,300L646,325L657,341L657,349L660,355"/>
    <path d="M520,231L508,251L508,263"/>
    <path d="M154,250L155,244L148,235L120,223L101,221L90,224L77,232L70,240L64,251L59,270L57,290L50,305L47,318L35,340L28,377L28,382L35,388L37,414L21,430L7,458L1,481L11,482L32,473L68,462"/>
    <path d="M153,251L158,275L164,282L164,289L162,293"/>
    <path d="M319,253L338,253L342,255L358,253L363,255L367,260L368,271L365,276L356,279L354,284"/>
    <path d="M318,254L322,261L318,266L309,272L307,285L312,293L321,292"/>
    <path d="M507,264L481,263L472,270L464,281L456,295L447,323L432,358L425,369L426,388"/>
    <path d="M353,285L347,287L330,298L324,298L322,293"/>
    <path d="M354,286L360,297L368,302"/>
    <path d="M162,294L162,313L160,317L152,323L137,325L131,336L129,347L131,360L129,365"/>
    <path d="M163,294L171,296L176,300L183,315L189,323L191,327L191,345"/>
    <path d="M369,303L370,327L376,351L375,385"/>
    <path d="M251,313L245,313L243,311L248,299L245,285L248,281L257,280L267,284L278,294L290,317"/>
    <path d="M252,313L255,327L260,336L263,339L270,340L275,346L283,345L290,339L290,335L285,325L285,321L289,318"/>
    <path d="M191,345L173,363L171,367L172,379"/>
    <path d="M191,345L194,348L217,394L233,409"/>
    <path d="M660,357L660,390L658,411L649,454L636,499L630,499L586,479L546,464L510,453L463,443L461,440L459,425L453,411L439,395L427,389"/>
    <path d="M43,377L43,384L49,406L69,461"/>
    <path d="M43,377L47,376L77,386L81,389L91,416L98,443L100,445L109,447L124,447L158,438"/>
    <path d="M171,380L166,389L165,396"/>
    <path d="M173,380L176,383L188,408L205,432"/>
    <path d="M374,386L361,397L357,406L355,418"/>
    <path d="M376,386L386,383L400,383L425,389"/>
    <path d="M165,397L153,421L158,437"/>
    <path d="M166,397L171,401L177,413L179,434"/>
    <path d="M241,405L251,405L255,409L259,418L259,424"/>
    <path d="M303,408L301,410L298,425L260,425"/>
    <path d="M305,408L308,411L310,421L313,425L350,426"/>
    <path d="M233,409L230,413L229,420"/>
    <path d="M355,418L358,421L363,442L373,463L380,469L390,467L396,469L399,472L403,482L412,491L426,499L429,503L430,507L424,511L383,517"/>
    <path d="M229,422L233,440L238,447"/>
    <path d="M259,426L255,440L248,446L239,448"/>
    <path d="M350,426L349,445L351,448L351,453L349,464L356,485L363,494L372,498L380,505L382,516"/>
    <path d="M204,433L180,435"/>
    <path d="M206,433L224,436L228,447"/>
    <path d="M178,435L159,438"/>
    <path d="M227,449L221,466"/>
    <path d="M70,462L73,464L80,476L85,480L123,480L152,471L175,467L190,471L209,472"/>
    <path d="M221,466L210,472"/>
    <path d="M221,466L229,467L310,458L313,463L318,487L321,490"/>
    <path d="M209,472L208,478L221,565L223,567L232,567L253,563"/>
    <path d="M322,490L325,488L332,488L350,492L374,517"/>
    <path d="M322,496L328,499L328,503L325,506"/>
    <path d="M478,498L483,487L483,473L480,466L473,459L466,459L457,473L446,484L444,488L444,499L448,505L462,505L477,499"/>
    <path d="M478,499L490,502L494,505L501,514L505,526L505,563L498,591L495,596L484,635L476,656L477,666L499,730L501,744L501,768L497,788L491,802L472,821L471,825L465,864L458,964L454,989L449,997L439,995L424,987L396,978L397,961L403,944L407,923L406,900L403,883L400,878"/>
    <path d="M325,506L328,518"/>
    <path d="M329,519L341,522L350,529L367,535"/>
    <path d="M374,519L368,534"/>
    <path d="M328,520L335,545L335,552"/>
    <path d="M367,535L364,542L340,553L336,553"/>
    <path d="M326,558L318,557L294,561"/>
    <path d="M326,559L319,570L315,599L311,609"/>
    <path d="M292,561L286,547L283,544L279,544L275,550L274,561L270,560L260,552L255,552L254,562"/>
    <path d="M293,562L298,574L297,585"/>
    <path d="M255,563L259,568L261,578L275,593"/>
    <path d="M296,586L284,586L276,592"/>
    <path d="M297,586L306,607L310,610"/>
    <path d="M275,593L273,600L273,620L282,661L291,690L301,706L318,717L316,732L305,773L303,800L311,823L319,827L322,831L331,887L334,931L334,962L328,962L324,958L315,955L308,956L303,961L303,976L305,978L331,977L340,974L387,975L389,973L392,951L393,906L397,880L399,878"/>
    <path d="M301,90L320,96L336,120L336,133L332,145L315,170L313,192L317,201L317,210L307,224L300,224L294,218L288,203L288,197L291,191L291,182L284,171L285,148L279,133L279,115L300,91"/>
  </g>
</svg>
