<svg xmlns="http://www.w3.org/2000/svg" viewBox="0 0 2560 1440" preserveAspectRatio="xMidYMid meet">
  <g data-id="6" transform="translate(1826.99 431.38) scale(0.344805 0.344805)" fill="none" stroke="black" stroke-width="2.5" stroke-linecap="round" stroke-linejoin="round" vector-effect="non-scaling-stroke">
    <path d="M204,186L195,190L186,189"/>
    <path d="M213,379L191,368L171,351L161,333L162,312L171,296L185,284L206,275L247,264L274,248L287,234L287,222L276,215L267,206L262,197L254,174L249,148L250,128L261,91L272,67L282,59L289,59L305,64L317,63L326,71L336,95L352,126L368,149L384,164L385,167L383,174L369,177L364,181L361,187L358,209L359,241L351,260L341,274"/>
    <path d="M158,457L155,470L151,478L134,498L110,533L81,590L68,639L60,686L44,757L32,841L10,930L10,939L23,958L22,985L25,991L38,1004L63,1021L66,1025"/>
    <path d="M264,516L253,532L242,555L221,633L202,681"/>
    <path d="M300,521L307,500L307,473L299,441L285,407L281,392L281,358L286,343L300,319L321,294L340,275"/>
    <path d="M376,531L375,539L381,548L384,558L388,561"/>
    <path d="M283,537L300,539L321,535L353,525L370,523"/>
    <path d="M312,550L310,626L311,719L293,735L278,743"/>
    <path d="M58,642L47,678"/>
    <path d="M31,693L31,689L45,653L48,639L20,627"/>
    <path d="M43,712L36,717L27,716L12,705L5,693L3,655L19,628"/>
    <path d="M392,776L390,779L390,788L387,797L377,815"/>
    <path d="M416,784L431,767L432,758L429,743"/>
    <path d="M406,842L405,817"/>
    <path d="M186,189L188,182L204,156L221,146L227,140L229,134L229,122L225,110L226,96L247,65L271,35L287,20L311,7L327,3L360,6L385,20L401,37L412,57L421,86L430,134L435,210L438,216L456,236L456,245L453,251L453,256"/>
    <path d="M186,189L170,196L159,206L156,214L157,223L144,237L135,254L124,286L103,334L83,392L64,440L38,518L35,546L26,556L23,563L23,577L25,586L18,614L19,626"/>
    <path d="M452,257L443,260L439,264L439,268L445,276L449,286L449,297L446,305L436,315L426,320L414,323L394,320L372,310L354,294L346,282L346,279L342,275"/>
    <path d="M454,257L468,266L478,277L483,293L493,304L496,310L497,327L488,339L487,344L486,371L478,412L478,456L469,520L469,547L466,575L458,632L448,654L448,668L455,673L456,680L453,691L439,704L436,732L434,737L429,741"/>
    <path d="M371,522L374,504L386,491L393,489L394,502L392,548L391,559L389,561"/>
    <path d="M389,562L390,592L385,652L372,729"/>
    <path d="M372,730L383,736"/>
    <path d="M371,731L364,763L364,775"/>
    <path d="M383,737L380,759L375,768L366,775"/>
    <path d="M384,737L412,743L428,742"/>
    <path d="M364,779L361,782L349,839L346,845L323,869L302,907L283,949L275,983L274,1007L280,1016L298,1020"/>
    <path d="M404,817L397,822L359,878L351,886L343,887L339,884L339,878L365,840L370,828"/>
    <path d="M298,1021L294,1027L279,1034L273,1039L271,1043L270,1060L265,1063L255,1064"/>
    <path d="M67,1026L72,1027L124,1054L133,1057L138,1061"/>
    <path d="M66,1027L64,1060L64,1146L60,1186L54,1207L48,1219L29,1250L16,1267L7,1287L5,1297L5,1317L7,1322L13,1328L20,1330L35,1329L48,1325L62,1318L74,1306L84,1278L86,1276L100,1277L103,1273L107,1240L118,1221L120,1213L120,1196L116,1180L112,1175L112,1162L122,1116L138,1062"/>
    <path d="M199,1052L194,1049L173,1044L151,1042L148,1045L145,1059L139,1061"/>
    <path d="M200,1052L253,1064"/>
    <path d="M199,1053L194,1087L184,1124L183,1161L187,1174L193,1180L201,1183L210,1182L216,1179L233,1162L251,1137L255,1124L253,1092L254,1065"/>
  </g>
</svg>
