<svg xmlns="http://www.w3.org/2000/svg" viewBox="0 0 2560 1440" preserveAspectRatio="xMidYMid meet">
  <g data-id="1" transform="translate(765.68 420.89) scale(0.369844 0.369844)" fill="none" stroke="black" stroke-width="2.5" stroke-linecap="round" stroke-linejoin="round" vector-effect="non-scaling-stroke">
    <path d="M456,108L444,117"/>
    <path d="M442,119L436,134L430,137"/>
    <path d="M355,512L352,507L347,484L339,460L333,448L318,431L296,417L289,409L293,398L294,386L284,361L283,336L270,264L263,237L247,199L241,191L227,179L209,169L199,166L192,168L176,167L163,169L143,176L120,196L112,207L106,221L100,246L95,283L85,327L81,337L74,346L76,364L57,393L39,400L31,407L25,417L15,445L10,466L6,496L2,602L5,622L10,638L23,652L32,655L43,655L62,650L75,642L80,642L91,659L104,719L109,766L119,805L125,818L130,838L139,856L153,873L172,916L181,942L192,959L192,1049L194,1080L197,1109L208,1154L216,1227L221,1244L228,1250L235,1253L232,1287L232,1300L234,1307L244,1321L248,1335L257,1344L269,1344L274,1338L275,1322L282,1311L286,1300L286,1279L282,1245L287,1234L288,1220L283,1111L278,1052L278,1031L281,1027L286,1029L291,1071L296,1189L305,1212L308,1227L309,1259L300,1279L300,1288L306,1298L313,1305L317,1318L324,1324L331,1324L337,1320L341,1314L344,1297L361,1281L372,1275L386,1271L396,1265L402,1258L407,1245L407,1222L403,1211L399,1207L393,1204L388,1204L383,1206L378,1211L372,1211L374,1156L377,1130L377,1058L372,1038L372,997L376,953L378,884L386,823L386,800L381,744L374,724L362,702L361,693L371,688L377,682L384,670L391,651L391,632L378,607L366,572L354,516L355,514"/>
    <path d="M360,512L363,499L372,482L382,472L408,461L414,454L414,373L422,333L439,280L448,262L448,253L443,243L432,235L427,229L429,222L436,214L436,207L412,214L404,213L396,206L390,195L378,182L374,175L370,174L361,176L355,172L356,139L347,127L344,120L343,91L330,76L326,61L332,48L336,44L341,43L350,32L358,26L376,19L389,10L396,10L416,2L445,4L465,14L487,36L495,49L503,82L506,133L510,137L527,136L541,152L551,158L566,162L585,172L595,179L618,205L634,241L640,262L658,375L658,391L653,415L653,429L658,468L657,489L663,510L665,540L670,565L670,582L666,600L665,616L661,631L649,648L647,658L653,685L656,727L662,764L672,795L673,808L682,829L687,853L697,885L701,908L710,987L709,1021L706,1034L709,1043L709,1050L705,1058L707,1077L671,1109L648,1142L634,1175L627,1212L621,1216L603,1219L582,1230L564,1236L549,1238L504,1237L487,1232L479,1223L478,1211L480,1205L489,1195L522,1183L553,1164L572,1143L574,1132L553,1120L542,1107L541,1098L549,1082L549,1075L527,1033L506,987L481,949L466,913L458,885L451,799L443,752L437,735L434,717L434,700L442,667L443,620L439,594L434,582L423,564L421,557L416,508L412,507L398,514L388,527L380,526L361,514"/>
    <path d="M576,850L580,850L582,852L590,866L594,881L609,905L616,931L622,971L628,993L629,1011L626,1014L621,1010L611,978L598,952L582,911L573,895L572,885L568,874L568,867L575,851"/>
  </g>
</svg>
