<svg xmlns="http://www.w3.org/2000/svg" viewBox="0 0 2560 1440" preserveAspectRatio="xMidYMid meet">
  <g data-id="4" transform="translate(1209.79 327.75) scale(0.256104 0.256100)" fill="none" stroke="black" stroke-width="2.5" stroke-linecap="round" stroke-linejoin="round" vector-effect="non-scaling-stroke">
    <path d="M283,321L288,298L297,281L333,238L347,225L357,223L368,217L373,217L378,222"/>
    <path d="M150,503L141,518L129,555"/>
    <path d="M380,222L388,220L394,212L399,201L401,184L404,175L413,162L426,133L426,116L417,80L409,61L396,42L379,25L367,16L356,10L333,2L305,2L299,4L281,5L272,9L260,19L245,20L234,23L214,35L205,46L202,58L210,78L217,85L217,96L214,106L218,113L218,119L194,140L193,145L194,149L208,160L207,175L212,183L210,203L213,210L218,215L223,217L245,217L255,226L262,235L263,240L252,251L202,346L177,404L168,433L163,438L159,438L152,434L147,435L134,433L121,439L116,439L107,433L98,431L75,433L61,445L51,449L42,448L26,440L19,440L13,444L2,461L2,471L6,486L43,527L59,541L65,542L76,552L87,557L91,555L97,537L103,534L124,555L127,555"/>
    <path d="M379,223L383,244L392,257L407,288L419,324L425,349L430,394L430,424L412,518L412,545L415,585L422,622L427,671L427,735L423,748L410,762L401,809L384,869L385,970L401,990L404,1004L400,1017L393,1024L371,1034L355,1051L342,1067L319,1101L310,1103L299,1096"/>
    <path d="M128,556L128,581L135,587L153,588L158,597L154,638L149,666L148,701L151,711L157,712L163,710"/>
    <path d="M165,710L167,739L169,749L176,766L176,795L182,865L183,943L190,979L191,1087L194,1103L203,1120L202,1163L207,1196L205,1203L192,1226L191,1248L188,1254L160,1276L142,1285L113,1295L103,1307L103,1317L109,1325L117,1329L140,1333L177,1333L206,1327L244,1315L247,1312L253,1297L253,1265L279,1213L288,1189L297,1137L298,1097"/>
  </g>
</svg>
