<svg xmlns="http://www.w3.org/2000/svg" viewBox="0 0 2560 1440" preserveAspectRatio="xMidYMid meet">
  <g data-id="2" transform="translate(718.27 319.16) scale(0.955947 0.955947)" fill="none" stroke="black" stroke-width="2.5" stroke-linecap="round" stroke-linejoin="round" vector-effect="non-scaling-stroke">
    <path d="M639,249L632,288L621,322L618,348"/>
    <path d="M639,249L637,247L637,236L634,220L634,198L632,194L617,180L621,163L620,153L614,146L606,131L599,95L581,55L566,40L554,34L543,32L528,34L498,47L483,59L478,70L480,84L492,99L488,119L496,126L502,141L502,152L505,155L525,154L529,162L529,171L525,178L519,183L510,186L493,188L483,196L478,209L471,260L460,311L449,330L448,343L431,370L428,385L420,393L407,392L402,396"/>
    <path d="M639,249L642,247L658,199L667,180L663,170L663,162L671,150L666,144L642,144L637,141L635,138L635,127L632,124L632,118L629,115L627,108L619,106L616,103L624,79L621,72L621,66L625,46L625,41L618,34L618,25L623,19L629,16L665,3L680,1L694,2L712,10L723,21L736,40L739,47L739,65L736,86L730,101L730,106L755,134L778,150L794,167L807,194L816,233L812,300L812,355L818,397L825,426L838,503L826,513L824,518L807,525L801,555L801,590L797,615L797,630L803,675L816,732L817,752L814,820L812,839L806,862L809,871L807,903L809,910L810,943L805,947L788,952L787,946L782,946L764,960L752,965L741,967L702,968L690,967L686,963L686,954L689,947L712,931L715,927L715,923L684,923L682,919L682,912L674,898L675,887L704,863L706,853L711,845L711,841L705,832L706,820L711,805L711,796L702,724L703,707L692,698L687,689L682,673L676,640L677,568L682,548L682,540L678,529L678,516L679,500L684,489L690,479L705,469L710,463L710,454L705,448L686,437L680,439L646,439L598,437L558,438L547,436L528,436L528,430L537,424L542,417"/>
    <path d="M617,349L614,351L612,359L607,362L606,373L601,383L601,391L604,402"/>
    <path d="M618,349L620,357L621,400L615,405L604,403"/>
    <path d="M401,396L397,397L393,401L387,412L388,421L393,424L398,423"/>
    <path d="M402,397L404,417"/>
    <path d="M603,403L577,400L563,407L554,409L543,416"/>
    <path d="M542,416L503,418L470,424L408,424"/>
  </g>
</svg>
