<svg xmlns="http://www.w3.org/2000/svg" viewBox="0 0 2560 1440" preserveAspectRatio="xMidYMid meet">
  <g data-id="4" transform="translate(1761.08 168.70) scale(0.828750 0.828750)" fill="none" stroke="black" stroke-width="2.5" stroke-linecap="round" stroke-linejoin="round" vector-effect="non-scaling-stroke">
    <path d="M518,171L509,172L509,174L513,177"/>
    <path d="M531,212L544,212"/>
    <path d="M556,165L557,171L562,170"/>
    <path d="M564,166L568,159L568,143L565,134L548,110L546,93L541,83L534,77L523,73L507,70L487,70L460,76L437,86L422,96L404,119L393,139L388,154L387,172L390,204L400,225L406,233L414,241L429,245L433,248L438,259L439,267L444,275L444,279L429,300L418,311L406,319L355,341L339,350L331,352L325,355L322,359L316,374L312,396L296,452L288,499L275,542L262,572L254,598L254,610L257,622L275,666L301,702L330,748L320,826L319,898L324,904L342,915L342,935L345,964L360,1054L360,1062L385,1205L388,1246L395,1260L398,1286L406,1326L405,1342L402,1351L398,1383L398,1402L403,1414L416,1429L414,1439L405,1459L390,1470L375,1487L340,1500L316,1505L304,1510L298,1517L298,1526L304,1531L437,1531L446,1528L483,1529L509,1523L518,1518L518,1416L508,1376L508,1360L516,1316L516,1266L514,1237L511,1222L510,1177L506,1158L507,1119L504,1108L491,1079L491,1061L493,1052L497,1046"/>
    <path d="M563,171L563,177L568,189L571,207L570,221L572,230L572,248L570,260L563,275L564,281L569,286"/>
    <path d="M570,287L574,291L584,296L615,304L677,327L701,340L708,348L725,416L730,446L736,488L743,570L743,620L742,633L738,648L731,661L716,680L689,708L677,716L670,725L670,734L675,760L694,832L705,888L696,891L694,905L691,909L671,921L671,971L664,1007L664,1030L667,1058L667,1119L662,1151L662,1178L673,1225L675,1243L678,1334L678,1416L672,1491L666,1522L661,1531L583,1532L581,1530L581,1523L576,1518L565,1494L560,1477L560,1460L562,1445L572,1405L572,1394L565,1356L564,1325L556,1244L535,1153L521,1115L502,1048L499,1046"/>
    <path d="M344,668L365,656L390,656L513,593L531,582L602,548L628,532L638,532L647,535L701,557L704,560L710,585L721,617L723,633L695,650L624,688L581,696L580,698"/>
    <path d="M343,669L337,675L331,686L329,695L330,705L337,719L343,725L348,727L354,740L365,751L376,754L392,764L462,781L477,781L496,777L519,778L530,772L558,763L564,763L572,767L583,766L589,761L594,750L594,730L590,717L580,700"/>
  </g>
</svg>
