<svg xmlns="http://www.w3.org/2000/svg" viewBox="0 0 2560 1440" preserveAspectRatio="xMidYMid meet">
  <g data-id="3" transform="translate(387.42 549.66) scale(0.466416 0.466419)" fill="none" stroke="black" stroke-width="2.5" stroke-linecap="round" stroke-linejoin="round" vector-effect="non-scaling-stroke">
    <path d="M700,982L699,970"/>
    <path d="M699,970L696,968L693,953L692,920L695,916L708,914L712,917L715,925L716,955L700,969"/>
    <path d="M123,2L139,3L161,12L184,33L196,52L197,61L206,83L207,96L212,104L226,104L233,102L253,104L264,113L274,127L290,155L294,179L312,209L317,232L326,242L336,262L337,276L340,282L340,299L333,315L337,326L337,343L309,368L291,369L271,377L242,376L239,380L237,391L227,399L155,416L80,452L70,453L67,446L68,427L58,421L41,403L24,370L17,344L13,318L3,288L5,258L2,241L2,228L7,217L27,194L68,158L68,148L60,123L60,97L58,85L59,67L51,55L51,45L53,40L68,25L81,22L113,4L122,3"/>
    <path d="M472,124L496,125L519,133L529,140L559,168L567,185L571,208L570,238L565,249L564,259L566,264L574,269L578,269L589,274L608,277L648,266L659,269L675,283L681,293L707,345L712,361L719,394L719,425L714,442L703,458L703,471L708,498L719,534L739,585L763,658L774,697L795,786L795,802L790,815L793,846L787,855L771,871L766,883L759,890L758,898L758,933L762,959L766,969L778,981L782,991L782,1007L779,1014L779,1025L767,1035L752,1035L736,1028L734,1030L734,1038L731,1047L730,1067L720,1074L706,1074L690,1065L683,1065L652,1079L633,1079L618,1074L609,1068L597,1056L596,1047L600,1040L605,1036L612,1032L623,1030L648,1020L655,1014L655,997L633,959L624,938L620,937L584,945L562,945L551,939L525,910L470,619L468,616L456,616L443,612L429,604L415,590L398,560L394,547L371,515L366,501L366,487L356,472L357,455L365,446L367,439L370,436L385,435L395,437L408,448L420,447L421,420L426,407L459,368L471,337L495,311L495,306L492,304L481,307L472,306L414,252L404,235L404,211L400,199L400,185L403,176L420,150L434,136L471,125"/>
  </g>
</svg>
