<svg xmlns="http://www.w3.org/2000/svg" viewBox="0 0 2560 1440" preserveAspectRatio="xMidYMid meet">
  <g data-id="3" transform="translate(1666.41 206.45) scale(0.371094 0.716146)" fill="none" stroke="black" stroke-width="2.5" stroke-linecap="round" stroke-linejoin="round" vector-effect="non-scaling-stroke">
    <path d="M250,263L238,267L220,280L208,293L200,305L199,318L208,342L209,358L205,369L197,379L188,386L171,393L137,394L113,392L83,397L62,407L46,423L40,434L30,463L28,472L28,487L35,508L51,536L51,548L48,554L42,560L35,563"/>
    <path d="M2,353L12,346L34,337L49,325L61,306L95,241L118,218L128,211L143,204L163,198L199,193L236,194L318,208L334,216L340,222L344,231"/>
    <path d="M749,414L741,414L731,424L730,429L725,434L710,441L706,445L704,454L701,457L665,470"/>
    <path d="M545,461L544,458L536,458L520,468L490,478L474,487L447,508L423,515L421,513L420,501L416,494L407,485L385,469L371,455L359,439L350,423L338,411L315,400L256,389L249,384L249,377L255,361L260,353L269,344L273,342L287,342L326,345L340,338L340,321L348,313L346,302L356,297L358,294L358,289L348,272L348,265L352,259L353,251L345,232"/>
    <path d="M551,479L627,464L631,467L631,472L625,481"/>
    <path d="M67,563L91,619L104,634L117,639L143,638L147,642L145,652L132,671L117,690L99,707L87,725L80,742L75,764L75,788L79,805L86,822L88,857L104,927L104,940L96,976L86,1036L72,1180L60,1245L48,1329L49,1342L52,1345L72,1354"/>
    <path d="M624,482L608,488L605,493"/>
    <path d="M625,482L627,484L625,489L611,495L605,494"/>
    <path d="M598,498L568,519L553,523L523,526L488,542L463,550L427,565L423,571L429,593L437,607L445,615"/>
    <path d="M599,498L603,507L607,505L613,505L615,507"/>
    <path d="M615,508L609,514L595,521L594,530L579,545L543,564L521,578L447,615"/>
    <path d="M446,616L445,625L437,631L431,633L427,638L427,642L430,649L431,658L442,672L449,692L451,721L448,752L431,835L412,891L395,949L378,1027L370,1076L341,1177L322,1275L313,1291L313,1297L321,1312L326,1336"/>
    <path d="M325,1337L307,1345L287,1349L285,1351L284,1361"/>
    <path d="M326,1337L335,1342L356,1349L384,1354L424,1358L431,1362L430,1369L415,1374L383,1377L331,1377L329,1379"/>
    <path d="M73,1354L99,1360L117,1362L154,1361L215,1366L256,1366L271,1365L283,1362"/>
    <path d="M72,1355L72,1371L76,1387L86,1395L103,1400L134,1403L144,1400L152,1389L161,1389L223,1410L249,1414L317,1417L357,1416L382,1413L388,1411L392,1407L392,1404L387,1399L342,1388L331,1384L328,1380"/>
    <path d="M284,1362L308,1376L327,1379"/>
  </g>
</svg>
