<svg xmlns="http://www.w3.org/2000/svg" viewBox="0 0 2560 1440" preserveAspectRatio="xMidYMid meet">
  <g data-id="1" transform="translate(30.00 220.00) scale(0.742617 0.742617)" fill="none" stroke="black" stroke-width="2.5" stroke-linecap="round" stroke-linejoin="round" vector-effect="non-scaling-stroke">
    <path d="M348,163L336,165"/>
    <path d="M140,473L135,466L127,463"/>
    <path d="M208,507L234,511L247,511L251,513L261,513L275,510L281,502L272,492L265,489L256,480L256,472"/>
    <path d="M237,550L224,545L209,535L200,533L194,527L188,525"/>
    <path d="M338,568L338,515L324,502L304,488L294,486L276,475L265,475L260,471L257,471"/>
    <path d="M452,1143L454,1185"/>
    <path d="M126,464L125,470L132,477L138,494L145,501"/>
    <path d="M256,470L257,459L278,411L287,358L295,328L303,308L316,293L339,283L368,267L367,261L355,260L343,253L335,230L328,218L319,211L318,192L315,177L298,160L296,149L296,123L279,110L276,103L276,96L284,85L300,77L314,65L344,47L368,41L385,41L411,46L424,53L437,66L456,92L462,115L462,138L458,156L452,167L457,173L461,182L463,198L471,204L475,212L479,216L483,217L505,242L552,273L580,296L592,321L600,361L600,393L596,430L589,482L580,520L567,560L559,576L552,581L534,585L532,588L534,612L564,777L563,787L548,783L546,785L545,795L542,798L535,800L533,803L532,825L524,860L523,942L531,981L536,1026L551,1090L556,1134L554,1248L546,1330L544,1370L550,1392L550,1431L548,1436L511,1451L495,1465L484,1472L461,1482L439,1488L413,1493L386,1494L372,1491L365,1485L365,1476L370,1464L378,1456L390,1449L415,1426L420,1417L419,1412L395,1417L360,1421L334,1429L279,1438L243,1437L233,1432L227,1426L227,1419L230,1413L237,1406L247,1402L266,1399L285,1393L305,1384L312,1379L330,1354L345,1341L356,1308L356,1302L350,1291L348,1279L353,1225L353,1211L351,1203L352,1159L349,1144L341,1123L340,1113L323,1068L315,1034L295,927L281,869L274,799"/>
    <path d="M146,502L149,508L152,508L163,518L174,522L184,522L187,524"/>
    <path d="M187,526L186,531L195,550L208,564L212,566L241,569L261,574L271,574L282,570L284,572L272,643L272,693L263,779L263,798L265,800L272,798"/>
    <path d="M453,1186L451,1189L450,1213L446,1241L446,1263L451,1309"/>
    <path d="M455,1186L458,1189L460,1197L468,1243L468,1256L456,1306L453,1309"/>
  </g>
</svg>
